REM DIRINDEX 1\3,1\2\4,1\2\5,1\2\6
REM DIRNAME folder01,folder02,folder03,folder04,folder05,folder06
TITLE ""
FILE "146.mp3" MP3
  TRACK 01 AUDIO
    TITLE "4:cjc137_6385"
    INDEX 01 00:00:00
  TRACK 02 AUDIO
    TITLE "0:"
    INDEX 01 00:01:07
  TRACK 03 AUDIO
    TITLE "6:cjc137_6386"
    INDEX 01 00:01:15
  TRACK 04 AUDIO
    TITLE "0:"
    INDEX 01 00:02:28
  TRACK 05 AUDIO
    TITLE "5:cjc137_6387"
    INDEX 01 00:02:32
  TRACK 06 AUDIO
    TITLE "0:"
    INDEX 01 00:03:37
  TRACK 07 AUDIO
    TITLE "4:cjc137_6388"
    INDEX 01 00:04:46
  TRACK 08 AUDIO
    TITLE "0:"
    INDEX 01 00:05:61
  TRACK 09 AUDIO
    TITLE "6:cjc137_6389"
    INDEX 01 00:05:69
  TRACK 10 AUDIO
    TITLE "0:"
    INDEX 01 00:07:07
  TRACK 11 AUDIO
    TITLE "5:cjc137_6390"
    INDEX 01 00:07:11
  TRACK 12 AUDIO
    TITLE "0:"
    INDEX 01 00:08:28
  TRACK 13 AUDIO
    TITLE "4:cjc137_6391"
    INDEX 01 00:09:36
  TRACK 14 AUDIO
    TITLE "0:"
    INDEX 01 00:10:59
  TRACK 15 AUDIO
    TITLE "6:cjc137_6392"
    INDEX 01 00:10:66
  TRACK 16 AUDIO
    TITLE "0:"
    INDEX 01 00:12:22
  TRACK 17 AUDIO
    TITLE "5:cjc137_6393"
    INDEX 01 00:12:26
  TRACK 18 AUDIO
    TITLE "0:"
    INDEX 01 00:13:49
  TRACK 19 AUDIO
    TITLE "4:cjc137_6394"
    INDEX 01 00:14:58
  TRACK 20 AUDIO
    TITLE "0:"
    INDEX 01 00:16:08
  TRACK 21 AUDIO
    TITLE "6:cjc137_6395"
    INDEX 01 00:16:14
  TRACK 22 AUDIO
    TITLE "0:"
    INDEX 01 00:17:37
  TRACK 23 AUDIO
    TITLE "5:cjc137_6396"
    INDEX 01 00:17:43
  TRACK 24 AUDIO
    TITLE "0:"
    INDEX 01 00:18:68
  TRACK 25 AUDIO
    TITLE "4:cjc137_6397"
    INDEX 01 00:20:00
  TRACK 26 AUDIO
    TITLE "0:"
    INDEX 01 00:21:17
  TRACK 27 AUDIO
    TITLE "6:cjc137_6398"
    INDEX 01 00:21:27
  TRACK 28 AUDIO
    TITLE "0:"
    INDEX 01 00:22:32
  TRACK 29 AUDIO
    TITLE "5:cjc137_6399"
    INDEX 01 00:22:40
  TRACK 30 AUDIO
    TITLE "0:"
    INDEX 01 00:23:55
  TRACK 31 AUDIO
    TITLE "4:cjc137_6400"
    INDEX 01 00:24:63
  TRACK 32 AUDIO
    TITLE "0:"
    INDEX 01 00:26:17
  TRACK 33 AUDIO
    TITLE "6:cjc137_6401"
    INDEX 01 00:26:24
  TRACK 34 AUDIO
    TITLE "0:"
    INDEX 01 00:27:10
  TRACK 35 AUDIO
    TITLE "5:cjc137_6402"
    INDEX 01 00:27:16
  TRACK 36 AUDIO
    TITLE "0:"
    INDEX 01 00:28:47
  TRACK 37 AUDIO
    TITLE "4:cjc137_6403"
    INDEX 01 00:29:54
  TRACK 38 AUDIO
    TITLE "0:"
    INDEX 01 00:30:67
  TRACK 39 AUDIO
    TITLE "6:cjc137_6404"
    INDEX 01 00:31:00
  TRACK 40 AUDIO
    TITLE "0:"
    INDEX 01 00:31:61
  TRACK 41 AUDIO
    TITLE "5:cjc137_6405"
    INDEX 01 00:31:67
  TRACK 42 AUDIO
    TITLE "0:"
    INDEX 01 00:33:07
  TRACK 43 AUDIO
    TITLE "4:cjc137_6406"
    INDEX 01 00:34:16
  TRACK 44 AUDIO
    TITLE "0:"
    INDEX 01 00:35:37
  TRACK 45 AUDIO
    TITLE "6:cjc137_6407"
    INDEX 01 00:35:39
  TRACK 46 AUDIO
    TITLE "0:"
    INDEX 01 00:36:46
  TRACK 47 AUDIO
    TITLE "5:cjc137_6408"
    INDEX 01 00:36:50
  TRACK 48 AUDIO
    TITLE "0:"
    INDEX 01 00:37:71
  TRACK 49 AUDIO
    TITLE "4:cjc137_6409"
    INDEX 01 00:39:00
  TRACK 50 AUDIO
    TITLE "0:"
    INDEX 01 00:40:05
  TRACK 51 AUDIO
    TITLE "6:cjc137_6410"
    INDEX 01 00:40:09
  TRACK 52 AUDIO
    TITLE "0:"
    INDEX 01 00:41:10
  TRACK 53 AUDIO
    TITLE "5:cjc137_6411"
    INDEX 01 00:41:14
  TRACK 54 AUDIO
    TITLE "0:"
    INDEX 01 00:42:18
  TRACK 55 AUDIO
    TITLE "4:cjc137_6412"
    INDEX 01 00:43:25
  TRACK 56 AUDIO
    TITLE "0:"
    INDEX 01 00:44:46
  TRACK 57 AUDIO
    TITLE "6:cjc137_6413"
    INDEX 01 00:44:52
  TRACK 58 AUDIO
    TITLE "0:"
    INDEX 01 00:45:61
  TRACK 59 AUDIO
    TITLE "5:cjc137_6414"
    INDEX 01 00:45:67
  TRACK 60 AUDIO
    TITLE "0:"
    INDEX 01 00:47:13
  TRACK 61 AUDIO
    TITLE "4:cjc137_6415"
    INDEX 01 00:48:18
  TRACK 62 AUDIO
    TITLE "0:"
    INDEX 01 00:49:31
  TRACK 63 AUDIO
    TITLE "6:cjc137_6416"
    INDEX 01 00:49:37
  TRACK 64 AUDIO
    TITLE "0:"
    INDEX 01 00:50:35
  TRACK 65 AUDIO
    TITLE "5:cjc137_6417"
    INDEX 01 00:50:41
  TRACK 66 AUDIO
    TITLE "0:"
    INDEX 01 00:51:52
  TRACK 67 AUDIO
    TITLE "4:cjc137_6418"
    INDEX 01 00:52:61
  TRACK 68 AUDIO
    TITLE "0:"
    INDEX 01 00:54:07
  TRACK 69 AUDIO
    TITLE "6:cjc137_6419"
    INDEX 01 00:54:13
  TRACK 70 AUDIO
    TITLE "0:"
    INDEX 01 00:55:44
  TRACK 71 AUDIO
    TITLE "5:cjc137_6420"
    INDEX 01 00:55:50
  TRACK 72 AUDIO
    TITLE "0:"
    INDEX 01 00:56:71
  TRACK 73 AUDIO
    TITLE "4:cjc137_6421"
    INDEX 01 00:58:01
  TRACK 74 AUDIO
    TITLE "0:"
    INDEX 01 00:59:38
  TRACK 75 AUDIO
    TITLE "6:cjc137_6422"
    INDEX 01 00:59:43
  TRACK 76 AUDIO
    TITLE "0:"
    INDEX 01 01:00:64
  TRACK 77 AUDIO
    TITLE "5:cjc137_6423"
    INDEX 01 01:01:05
  TRACK 78 AUDIO
    TITLE "0:"
    INDEX 01 01:02:40
  TRACK 79 AUDIO
    TITLE "4:cjc137_6424"
    INDEX 01 01:03:47
  TRACK 80 AUDIO
    TITLE "0:"
    INDEX 01 01:04:68
  TRACK 81 AUDIO
    TITLE "6:cjc137_6425"
    INDEX 01 01:04:74
  TRACK 82 AUDIO
    TITLE "0:"
    INDEX 01 01:06:34
  TRACK 83 AUDIO
    TITLE "5:cjc137_6426"
    INDEX 01 01:06:40
  TRACK 84 AUDIO
    TITLE "0:"
    INDEX 01 01:07:59
  TRACK 85 AUDIO
    TITLE "4:cjc137_6427"
    INDEX 01 01:08:66
  TRACK 86 AUDIO
    TITLE "0:"
    INDEX 01 01:10:22
  TRACK 87 AUDIO
    TITLE "6:cjc137_6428"
    INDEX 01 01:10:28
  TRACK 88 AUDIO
    TITLE "0:"
    INDEX 01 01:11:51
  TRACK 89 AUDIO
    TITLE "5:cjc137_6429"
    INDEX 01 01:11:52
  TRACK 90 AUDIO
    TITLE "0:"
    INDEX 01 01:13:10
  TRACK 91 AUDIO
    TITLE "4:cjc137_6430"
    INDEX 01 01:14:17
  TRACK 92 AUDIO
    TITLE "0:"
    INDEX 01 01:15:58
  TRACK 93 AUDIO
    TITLE "6:cjc137_6431"
    INDEX 01 01:15:66
  TRACK 94 AUDIO
    TITLE "0:"
    INDEX 01 01:17:16
  TRACK 95 AUDIO
    TITLE "5:cjc137_6432"
    INDEX 01 01:17:18
  TRACK 96 AUDIO
    TITLE "0:"
    INDEX 01 01:18:58
  TRACK 97 AUDIO
    TITLE "4:cjc137_6433"
    INDEX 01 01:19:70
  TRACK 98 AUDIO
    TITLE "0:"
    INDEX 01 01:20:67
  TRACK 99 AUDIO
    TITLE "6:cjc137_6434"
    INDEX 01 01:21:06
  TRACK 100 AUDIO
    TITLE "0:"
    INDEX 01 01:22:25
  TRACK 101 AUDIO
    TITLE "5:cjc137_6435"
    INDEX 01 01:22:33
  TRACK 102 AUDIO
    TITLE "0:"
    INDEX 01 01:23:32
  TRACK 103 AUDIO
    TITLE "4:cjc137_6436"
    INDEX 01 01:24:47
  TRACK 104 AUDIO
    TITLE "0:"
    INDEX 01 01:25:57
  TRACK 105 AUDIO
    TITLE "6:cjc137_6437"
    INDEX 01 01:25:64
  TRACK 106 AUDIO
    TITLE "0:"
    INDEX 01 01:27:04
  TRACK 107 AUDIO
    TITLE "5:cjc137_6438"
    INDEX 01 01:27:16
  TRACK 108 AUDIO
    TITLE "0:"
    INDEX 01 01:28:25
  TRACK 109 AUDIO
    TITLE "4:cjc137_6439"
    INDEX 01 01:29:35
  TRACK 110 AUDIO
    TITLE "0:"
    INDEX 01 01:30:50
  TRACK 111 AUDIO
    TITLE "6:cjc137_6440"
    INDEX 01 01:30:54
  TRACK 112 AUDIO
    TITLE "0:"
    INDEX 01 01:31:53
  TRACK 113 AUDIO
    TITLE "5:cjc137_6441"
    INDEX 01 01:31:59
  TRACK 114 AUDIO
    TITLE "0:"
    INDEX 01 01:32:70
  TRACK 115 AUDIO
    TITLE "4:cjc137_6442"
    INDEX 01 01:34:06
  TRACK 116 AUDIO
    TITLE "0:"
    INDEX 01 01:35:16
  TRACK 117 AUDIO
    TITLE "6:cjc137_6443"
    INDEX 01 01:35:24
  TRACK 118 AUDIO
    TITLE "0:"
    INDEX 01 01:36:37
  TRACK 119 AUDIO
    TITLE "5:cjc137_6444"
    INDEX 01 01:36:45
  TRACK 120 AUDIO
    TITLE "0:"
    INDEX 01 01:37:56
